<svg width="300" height="100" viewBox="0 0 300 100" fill="none" xmlns="http://www.w3.org/2000/svg">
<path d="M34.2692 70.4849L28 26.0033L62.6062 15L97.4631 26.0033L90.6923 70.4849L62.6062 85L34.2692 70.4849Z" stroke="#4E07A5" stroke-width="3"/>
<path d="M98 27.0285L68.6246 40.2843" stroke="#4E07A5" stroke-width="3"/>
<path d="M28.5059 25.4289L56.3369 40.2843" stroke="#4E07A5" stroke-width="3"/>
<line x1="61.1062" y1="85" x2="61.1062" y2="61.5886" stroke="#4E07A5" stroke-width="3"/>
<path fill-rule="evenodd" clip-rule="evenodd" d="M62.6062 61.5886C69.531 61.5886 75.1446 56.3478 75.1446 49.8829C75.1446 43.4181 69.531 38.1773 62.6062 38.1773C55.6814 38.1773 50.0677 43.4181 50.0677 49.8829C50.0677 56.3478 55.6814 61.5886 62.6062 61.5886ZM57.7155 58.0769H67.6281L65.1992 51.5111L66.1206 51.0428C66.5546 50.8222 66.9561 50.5428 67.3137 50.2123L67.4706 50.0673C67.9629 49.6124 68.344 49.0504 68.5844 48.4248L68.595 48.3972C68.7804 47.9149 68.8754 47.4027 68.8754 46.8861C68.8754 46.1394 68.6769 45.4061 68.3003 44.7614L68.1945 44.5802C67.8216 43.9418 67.3114 43.3944 66.7009 42.9774L66.6506 42.9429C66.2107 42.6425 65.7278 42.4106 65.2183 42.2553L64.3836 42.0008C64.0527 41.8998 63.7138 41.827 63.3705 41.7829C62.8846 41.7205 62.3929 41.7163 61.9059 41.7702L61.835 41.7781C61.4092 41.8253 60.9887 41.9129 60.5794 42.0397L60.4323 42.0853C60.0227 42.2122 59.6272 42.381 59.2521 42.5889L59.1544 42.6431C58.6361 42.9304 58.1672 43.2989 57.7654 43.7345L57.7178 43.7861C57.3682 44.1652 57.0782 44.5951 56.8577 45.0613L56.7664 45.2543C56.6122 45.5803 56.5071 45.9272 56.4545 46.2839C56.377 46.8086 56.4147 47.344 56.5649 47.8527L56.6058 47.9915C56.6889 48.2731 56.8006 48.5454 56.939 48.8043L56.9737 48.8693C57.2474 49.3811 57.6074 49.8417 58.038 50.2307L58.0772 50.2661C58.4037 50.5611 58.7656 50.8146 59.1544 51.0208L60.0788 51.5111L57.7155 58.0769Z" fill="#4E07A5"/>
<path d="M124.051 42.9629L123.629 45.2129C125.152 43.4434 126.998 42.582 129.166 42.6289C130.959 42.6641 132.283 43.3203 133.139 44.5977C133.994 45.875 134.305 47.6445 134.07 49.9062L132.066 62H127.109L129.148 49.8535C129.207 49.3965 129.219 48.9805 129.184 48.6055C129.031 47.4102 128.281 46.7949 126.934 46.7598C125.633 46.7129 124.467 47.3164 123.436 48.5703L121.062 62H116.105L119.41 42.9805L124.051 42.9629ZM145.004 62.3516C143.34 62.3398 141.863 61.9355 140.574 61.1387C139.297 60.3301 138.342 59.2285 137.709 57.834C137.076 56.4277 136.83 54.8809 136.971 53.1934L137.023 52.4902C137.199 50.6387 137.738 48.9395 138.641 47.3926C139.543 45.8457 140.703 44.6562 142.121 43.8242C143.539 42.9805 145.109 42.582 146.832 42.6289C149.281 42.6758 151.133 43.5781 152.387 45.3359C153.652 47.082 154.133 49.2969 153.828 51.9805L153.547 54.1426H141.893C141.846 55.373 142.145 56.3574 142.789 57.0957C143.434 57.834 144.312 58.2148 145.426 58.2383C147.23 58.2852 148.812 57.5879 150.172 56.1465L152.439 58.959C151.725 60.0371 150.693 60.8809 149.346 61.4902C147.998 62.0879 146.551 62.375 145.004 62.3516ZM146.586 46.7246C145.672 46.7012 144.857 46.9883 144.143 47.5859C143.439 48.1836 142.807 49.2207 142.244 50.6973H149.064L149.17 50.2402C149.24 49.7715 149.246 49.3262 149.188 48.9043C149.07 48.2246 148.783 47.6973 148.326 47.3223C147.869 46.9355 147.289 46.7363 146.586 46.7246ZM164.182 48.623L168.172 42.9805H173.744L166.854 52.543L170.703 62H165.676L163.338 56.0586L159.137 62H153.529L160.701 52.0508L157.027 42.9805H162.055L164.182 48.623ZM183.043 38.3047L182.217 42.9805H185.381L184.73 46.707H181.566L179.949 56.2344C179.879 56.832 179.926 57.2891 180.09 57.6055C180.254 57.9219 180.652 58.0918 181.285 58.1152C181.473 58.127 181.977 58.0977 182.797 58.0273L182.445 61.9121C181.566 62.2051 180.617 62.3398 179.598 62.3164C177.969 62.293 176.756 61.7832 175.959 60.7871C175.162 59.791 174.834 58.4434 174.975 56.7441L176.609 46.707H173.92L174.57 42.9805H177.26L178.068 38.3047H183.043ZM200.34 56.7266H191.41L188.773 62H183.096L196.771 36.4062H201.535L206.404 62H201.148L200.34 56.7266ZM193.52 52.4551H199.689L198.248 42.9277L193.52 52.4551ZM220.238 60.0312C218.832 61.6133 217.086 62.3867 215 62.3516C213.172 62.3281 211.789 61.6719 210.852 60.3828C209.914 59.0938 209.551 57.3945 209.762 55.2852L211.818 42.9805H216.775L214.684 55.3379C214.637 55.7246 214.631 56.0879 214.666 56.4277C214.783 57.5996 215.434 58.2031 216.617 58.2383C218.152 58.2852 219.424 57.6934 220.432 56.4629L222.805 42.9805H227.797L224.492 62H219.869L220.238 60.0312ZM238.238 38.3047L237.412 42.9805H240.576L239.926 46.707H236.762L235.145 56.2344C235.074 56.832 235.121 57.2891 235.285 57.6055C235.449 57.9219 235.848 58.0918 236.48 58.1152C236.668 58.127 237.172 58.0977 237.992 58.0273L237.641 61.9121C236.762 62.2051 235.812 62.3398 234.793 62.3164C233.164 62.293 231.951 61.7832 231.154 60.7871C230.357 59.791 230.029 58.4434 230.17 56.7441L231.805 46.707H229.115L229.766 42.9805H232.455L233.264 38.3047H238.238ZM247.73 45.0898C249.219 43.4258 250.936 42.6055 252.881 42.6289C254.768 42.6758 256.15 43.3555 257.029 44.668C257.92 45.9688 258.254 47.75 258.031 50.0117L256.027 62H251.07L253.092 49.959C253.15 49.502 253.162 49.0801 253.127 48.6934C253.01 47.4277 252.271 46.7773 250.912 46.7422C249.576 46.6953 248.404 47.2695 247.396 48.4648L245.006 62H240.049L244.725 35H249.699L247.73 45.0898Z" fill="#4E07A5"/>
</svg>
